<?xml version="1.0" encoding="UTF-8"?>
<svg width="19px" height="19px" viewBox="0 0 19 19" version="1.1" xmlns="http://www.w3.org/2000/svg" xmlns:xlink="http://www.w3.org/1999/xlink">
    <!-- Generator: Sketch 44.1 (41455) - http://www.bohemiancoding.com/sketch -->
    <title>Group 4</title>
    <desc>Created with Sketch.</desc>
    <defs></defs>
    <g id="Page-1" stroke="none" stroke-width="1" fill="none" fill-rule="evenodd">
        <g id="Group-4" transform="translate(9.500000, 9.500000) rotate(-90.000000) translate(-9.500000, -9.500000) translate(1.000000, 1.000000)">
            <circle id="Oval-5" stroke="#00749A" fill="#FFFFFF" cx="8.5" cy="8.5" r="8.5"></circle>
            <g id="next" transform="translate(8.000000, 9.000000) rotate(90.000000) translate(-8.000000, -9.000000) translate(6.000000, 5.000000)" fill-rule="nonzero" fill="#00749A">
                <path d="M3.93250593,3.65962343 L0.373612648,0.0635032332 C0.289818182,-0.0211677444 0.15543083,-0.0211677444 0.0716363636,0.0635032332 C-0.0121581028,0.148174211 -0.0121581028,0.283967288 0.0716363636,0.368638266 L3.47875099,3.81139216 L0.0716363636,7.25414606 C-0.0121581028,7.33881704 -0.0121581028,7.47461012 0.0716363636,7.5592811 C0.112743083,7.6008178 0.168079051,7.62318372 0.221833992,7.62318372 C0.275588933,7.62318372 0.330924901,7.60241537 0.372031621,7.5592811 L3.9309249,3.9631609 C4.01471937,3.88008749 4.01471937,3.74269684 3.93250593,3.65962343 Z" id="Shape"></path>
            </g>
        </g>
    </g>
</svg>