<?xml version="1.0" encoding="UTF-8"?>
<svg width="14px" height="14px" viewBox="0 0 14 14" version="1.1" xmlns="http://www.w3.org/2000/svg" xmlns:xlink="http://www.w3.org/1999/xlink">
    <!-- Generator: Sketch 44.1 (41455) - http://www.bohemiancoding.com/sketch -->
    <title>magnifying-glass</title>
    <desc>Created with Sketch.</desc>
    <defs></defs>
    <g id="Page-1" stroke="none" stroke-width="1" fill="none" fill-rule="evenodd">
        <g id="magnifying-glass" fill-rule="nonzero" fill="#747474">
            <path d="M13.8773836,13.286031 L10.4751663,9.88381375 C11.3878049,8.8345898 11.9403548,7.46563193 11.9403548,5.96940133 C11.9403548,2.67583149 9.26141907,0 5.97095344,0 C2.67738359,0 0.00155210643,2.6789357 0.00155210643,5.96940133 C0.00155210643,9.25986696 2.6804878,11.9388027 5.97095344,11.9388027 C7.46718404,11.9388027 8.83614191,11.3862528 9.88536585,10.4736142 L13.2875831,13.8758315 C13.3682927,13.956541 13.4769401,14 13.5824834,14 C13.6880266,14 13.7966741,13.9596452 13.8773836,13.8758315 C14.0388027,13.7144124 14.0388027,13.4474501 13.8773836,13.286031 Z M0.836585366,5.96940133 C0.836585366,3.1383592 3.13991131,0.838137472 5.96784922,0.838137472 C8.79889135,0.838137472 11.0991131,3.14146341 11.0991131,5.96940133 C11.0991131,8.79733925 8.79889135,11.1037694 5.96784922,11.1037694 C3.13991131,11.1037694 0.836585366,8.80044346 0.836585366,5.96940133 Z" id="Shape"></path>
        </g>
    </g>
</svg>
